<?xml version="1.0" encoding="UTF-8" standalone="no"?>
<!-- Created with Inkscape (http://www.inkscape.org/) -->

<svg
   xmlns:dc="http://purl.org/dc/elements/1.1/"
   xmlns:cc="http://creativecommons.org/ns#"
   xmlns:rdf="http://www.w3.org/1999/02/22-rdf-syntax-ns#"
   xmlns:svg="http://www.w3.org/2000/svg"
   xmlns="http://www.w3.org/2000/svg"
   xmlns:sodipodi="http://sodipodi.sourceforge.net/DTD/sodipodi-0.dtd"
   xmlns:inkscape="http://www.inkscape.org/namespaces/inkscape"
   width="512"
   height="512"
   viewBox="0 0 135.46666 135.46667"
   version="1.1"
   id="svg8"
   inkscape:version="0.92.1 r15371"
   sodipodi:docname="Stars.svg"
   inkscape:export-filename="C:\Users\arlen\Documents\MirrorFish\Assets\Textures\StarWhite.png"
   inkscape:export-xdpi="96"
   inkscape:export-ydpi="96">
  <defs
     id="defs2" />
  <sodipodi:namedview
     id="base"
     pagecolor="#ffffff"
     bordercolor="#666666"
     borderopacity="1.0"
     inkscape:pageopacity="0.0"
     inkscape:pageshadow="2"
     inkscape:zoom="0.35"
     inkscape:cx="-84.285714"
     inkscape:cy="784"
     inkscape:document-units="mm"
     inkscape:current-layer="layer1"
     showgrid="false"
     units="px"
     inkscape:window-width="1920"
     inkscape:window-height="1017"
     inkscape:window-x="-8"
     inkscape:window-y="-8"
     inkscape:window-maximized="1" />
  <metadata
     id="metadata5">
    <rdf:RDF>
      <cc:Work
         rdf:about="">
        <dc:format>image/svg+xml</dc:format>
        <dc:type
           rdf:resource="http://purl.org/dc/dcmitype/StillImage" />
        <dc:title></dc:title>
      </cc:Work>
    </rdf:RDF>
  </metadata>
  <g
     inkscape:label="Layer 1"
     inkscape:groupmode="layer"
     id="layer1"
     transform="translate(0,-161.53332)">
    <path
       sodipodi:type="star"
       id="path3682"
       sodipodi:sides="5"
       sodipodi:cx="72.178413"
       sodipodi:cy="226.34496"
       sodipodi:r1="34.553394"
       sodipodi:r2="69.106789"
       sodipodi:arg1="1.1276938"
       sodipodi:arg2="1.7560123"
       inkscape:flatsided="false"
       inkscape:rounded="0.1"
       inkscape:randomized="0"
       d="m 86.992989,257.56138 c -4.145951,1.96757 -23.030547,37.55353 -27.5412,36.7084 C 54.941136,293.42464 50.22022,253.41588 47.067781,250.08086 43.915342,246.74584 4.2354276,239.78219 3.6453268,235.23114 3.0552261,230.68009 39.646978,213.82685 41.844614,209.79812 44.04225,205.7694 38.40331,165.87967 42.549261,163.9121 c 4.145951,-1.96757 31.481812,27.62531 35.992466,28.47045 4.510653,0.84513 40.705513,-16.84443 43.857953,-13.50941 3.15244,3.33502 -16.54482,38.47768 -15.95472,43.02872 0.5901,4.55105 28.59869,33.50803 26.40105,37.53676 -2.19763,4.02872 -41.707071,-3.84481 -45.853021,-1.87724 z"
       inkscape:transform-center-x="-3.932743"
       inkscape:transform-center-y="-2.7459882"
       style="stroke-width:0.18518218;fill:#ffffff" />
    <path
       style="stroke-width:0.18518218;fill:#ffffff"
       inkscape:transform-center-y="-2.7459882"
       inkscape:transform-center-x="-3.932743"
       d="m 86.992989,257.56138 c -4.145951,1.96757 -23.030547,37.55353 -27.5412,36.7084 C 54.941136,293.42464 50.22022,253.41588 47.067781,250.08086 43.915342,246.74584 4.2354276,239.78219 3.6453268,235.23114 3.0552261,230.68009 39.646978,213.82685 41.844614,209.79812 44.04225,205.7694 38.40331,165.87967 42.549261,163.9121 c 4.145951,-1.96757 31.481812,27.62531 35.992466,28.47045 4.510653,0.84513 40.705513,-16.84443 43.857953,-13.50941 3.15244,3.33502 -16.54482,38.47768 -15.95472,43.02872 0.5901,4.55105 28.59869,33.50803 26.40105,37.53676 -2.19763,4.02872 -41.707071,-3.84481 -45.853021,-1.87724 z"
       inkscape:randomized="0"
       inkscape:rounded="0.1"
       inkscape:flatsided="false"
       sodipodi:arg2="1.7560123"
       sodipodi:arg1="1.1276938"
       sodipodi:r2="69.106789"
       sodipodi:r1="34.553394"
       sodipodi:cy="226.34496"
       sodipodi:cx="72.178413"
       sodipodi:sides="5"
       id="path3684"
       sodipodi:type="star" />
    <path
       sodipodi:type="star"
       id="use3688"
       sodipodi:sides="5"
       sodipodi:cx="190.10698"
       sodipodi:cy="72.886622"
       sodipodi:r1="34.553394"
       sodipodi:r2="69.106789"
       sodipodi:arg1="1.1276938"
       sodipodi:arg2="1.7560123"
       inkscape:flatsided="false"
       inkscape:rounded="0.1"
       inkscape:randomized="0"
       d="m 204.92155,104.10305 c -4.14595,1.96757 -23.03054,37.55352 -27.5412,36.70839 -4.51065,-0.84513 -9.23156,-40.853894 -12.384,-44.188915 -3.15244,-3.335021 -42.83236,-10.298675 -43.42246,-14.849721 -0.5901,-4.551046 36.00165,-21.404291 38.19929,-25.433017 2.19764,-4.028726 -3.4413,-43.918454 0.70465,-45.886024 4.14595,-1.9675696 31.48181,27.625315 35.99246,28.470446 4.51066,0.845132 40.70551,-16.844422 43.85795,-13.509402 3.15244,3.335022 -16.54482,38.477675 -15.95472,43.028721 0.5901,4.551046 28.5987,33.508032 26.40106,37.536752 -2.19764,4.02873 -41.70707,-3.8448 -45.85303,-1.87723 z"
       inkscape:transform-center-x="-3.932743"
       inkscape:transform-center-y="-2.7459882"
       style="fill:#000000;stroke-width:0.18518218" />
    <path
       sodipodi:type="star"
       id="use3688-2"
       sodipodi:sides="5"
       sodipodi:cx="72.178413"
       sodipodi:cy="226.34496"
       sodipodi:r1="34.553394"
       sodipodi:r2="69.106789"
       sodipodi:arg1="1.1276938"
       sodipodi:arg2="1.7560123"
       inkscape:flatsided="false"
       inkscape:rounded="0.1"
       inkscape:randomized="0"
       d="m 86.992989,257.56138 c -4.145951,1.96757 -23.030547,37.55353 -27.5412,36.7084 C 54.941136,293.42464 50.22022,253.41588 47.067781,250.08086 43.915342,246.74584 4.2354276,239.78219 3.6453268,235.23114 3.0552261,230.68009 39.646978,213.82685 41.844614,209.79812 44.04225,205.7694 38.40331,165.87967 42.549261,163.9121 c 4.145951,-1.96757 31.481812,27.62531 35.992466,28.47045 4.510653,0.84513 40.705513,-16.84443 43.857953,-13.50941 3.15244,3.33502 -16.54482,38.47768 -15.95472,43.02872 0.5901,4.55105 28.59869,33.50803 26.40105,37.53676 -2.19763,4.02872 -41.707071,-3.84481 -45.853021,-1.87724 z"
       inkscape:transform-center-x="-3.932743"
       inkscape:transform-center-y="-2.7459882"
       style="fill:#000000;stroke-width:0.18518218;fill-opacity:0" />
    <path
       sodipodi:type="star"
       id="use3688-6"
       sodipodi:sides="5"
       sodipodi:cx="72.178413"
       sodipodi:cy="226.34496"
       sodipodi:r1="34.553394"
       sodipodi:r2="69.106789"
       sodipodi:arg1="1.1276938"
       sodipodi:arg2="1.7560123"
       inkscape:flatsided="false"
       inkscape:rounded="0.1"
       inkscape:randomized="0"
       d="m 86.992989,257.56138 c -4.145951,1.96757 -23.030547,37.55353 -27.5412,36.7084 C 54.941136,293.42464 50.22022,253.41588 47.067781,250.08086 43.915342,246.74584 4.2354276,239.78219 3.6453268,235.23114 3.0552261,230.68009 39.646978,213.82685 41.844614,209.79812 44.04225,205.7694 38.40331,165.87967 42.549261,163.9121 c 4.145951,-1.96757 31.481812,27.62531 35.992466,28.47045 4.510653,0.84513 40.705513,-16.84443 43.857953,-13.50941 3.15244,3.33502 -16.54482,38.47768 -15.95472,43.02872 0.5901,4.55105 28.59869,33.50803 26.40105,37.53676 -2.19763,4.02872 -41.707071,-3.84481 -45.853021,-1.87724 z"
       inkscape:transform-center-x="-3.932743"
       inkscape:transform-center-y="-2.7459882"
       style="fill:#ffffff;stroke-width:0.18518218" />
  </g>
</svg>
